<svg fill="none" height="25" viewBox="0 0 24 25" width="24" xmlns="http://www.w3.org/2000/svg">
    <path
        d="M12 23.71C6.07 23.71 1.25 18.89 1.25 12.96C1.25 7.02996 6.07 2.20996 12 2.20996C17.93 2.20996 22.75 7.02996 22.75 12.96C22.75 18.89 17.93 23.71 12 23.71ZM12 3.70996C6.9 3.70996 2.75 7.85996 2.75 12.96C2.75 18.06 6.9 22.21 12 22.21C17.1 22.21 21.25 18.06 21.25 12.96C21.25 7.85996 17.1 3.70996 12 3.70996Z"
        fill="#292D32" />
    <path
        d="M16 13.71H8C7.59 13.71 7.25 13.37 7.25 12.96C7.25 12.55 7.59 12.21 8 12.21H16C16.41 12.21 16.75 12.55 16.75 12.96C16.75 13.37 16.41 13.71 16 13.71Z"
        fill="#292D32" />
    <path
        d="M12 17.71C11.59 17.71 11.25 17.37 11.25 16.96V8.95996C11.25 8.54996 11.59 8.20996 12 8.20996C12.41 8.20996 12.75 8.54996 12.75 8.95996V16.96C12.75 17.37 12.41 17.71 12 17.71Z"
        fill="#292D32" />
</svg>
