<svg width="25" height="25" viewBox="0 0 25 25" fill="none" xmlns="http://www.w3.org/2000/svg">
<path d="M5.5 24.71C3.84 24.71 2.28 23.83 1.44 22.4C0.989999 21.68 0.75 20.83 0.75 19.96C0.75 17.34 2.88 15.21 5.5 15.21C8.12 15.21 10.25 17.34 10.25 19.96C10.25 20.83 10.01 21.68 9.56 22.41C8.72 23.83 7.16 24.71 5.5 24.71ZM5.5 16.71C3.71 16.71 2.25 18.17 2.25 19.96C2.25 20.55 2.41 21.1299 2.72 21.6299C3.31 22.6299 4.35 23.21 5.5 23.21C6.65 23.21 7.69 22.62 8.28 21.64C8.59 21.13 8.75 20.56 8.75 19.96C8.75 18.17 7.29 16.71 5.5 16.71Z" fill="#292D32"/>
<path d="M4.92988 21.7C4.73988 21.7 4.54988 21.63 4.39988 21.48L3.40988 20.4901C3.11988 20.2001 3.11988 19.72 3.40988 19.43C3.69988 19.14 4.17988 19.14 4.46988 19.43L4.94988 19.91L6.54988 18.43C6.84988 18.15 7.32988 18.17 7.60988 18.47C7.88988 18.77 7.86988 19.25 7.56988 19.53L5.43988 21.5C5.28988 21.63 5.10988 21.7 4.92988 21.7Z" fill="#292D32"/>
<path d="M6.69004 8.76991C6.45004 8.76991 6.23005 8.65991 6.08005 8.45991C5.91005 8.22991 5.89005 7.92988 6.02005 7.67988C6.19005 7.33988 6.43005 7.00991 6.74005 6.70991L9.99005 3.4499C11.65 1.7999 14.35 1.7999 16.01 3.4499L17.76 5.22993C18.5 5.95993 18.95 6.93993 19 7.97993C19.01 8.20993 18.92 8.42991 18.75 8.57991C18.58 8.72991 18.35 8.7999 18.13 8.7599C17.93 8.7299 17.72 8.71992 17.5 8.71992H7.50005C7.26005 8.71992 7.03005 8.73991 6.80005 8.76991C6.77005 8.76991 6.73004 8.76991 6.69004 8.76991ZM8.36005 7.20991H17.32C17.19 6.86991 16.98 6.55992 16.7 6.27992L14.94 4.49989C13.87 3.43989 12.12 3.43989 11.04 4.49989L8.36005 7.20991Z" fill="#292D32"/>
<path d="M17.5 23.71H8.12998C7.80998 23.71 7.52998 23.51 7.41998 23.22C7.30998 22.92 7.39998 22.59 7.63998 22.39C7.87998 22.19 8.09998 21.93 8.25998 21.65C8.57998 21.14 8.73998 20.56 8.73998 19.97C8.73998 18.18 7.27998 16.72 5.48998 16.72C4.55998 16.72 3.66998 17.12 3.04998 17.83C2.83998 18.06 2.50998 18.15 2.21998 18.04C1.92998 17.93 1.72998 17.65 1.72998 17.34V12.96C1.72998 9.87996 3.62998 7.64997 6.57998 7.27997C6.84998 7.23997 7.15998 7.20996 7.47998 7.20996H17.48C17.72 7.20996 18.03 7.21996 18.35 7.26996C21.3 7.60996 23.23 9.84996 23.23 12.96V17.96C23.25 21.4 20.94 23.71 17.5 23.71ZM9.67998 22.21H17.5C20.08 22.21 21.75 20.54 21.75 17.96V12.96C21.75 10.62 20.38 9.00994 18.16 8.74994C17.92 8.70994 17.71 8.70996 17.5 8.70996H7.49998C7.25998 8.70996 7.02998 8.72995 6.79998 8.75995C4.59998 9.03995 3.24998 10.64 3.24998 12.96V15.78C3.92998 15.41 4.70998 15.21 5.49998 15.21C8.11998 15.21 10.25 17.34 10.25 19.96C10.25 20.75 10.05 21.53 9.67998 22.21Z" fill="#292D32"/>
<path d="M22.5 18.21H19.5C17.98 18.21 16.75 16.98 16.75 15.46C16.75 13.94 17.98 12.71 19.5 12.71H22.5C22.91 12.71 23.25 13.05 23.25 13.46C23.25 13.87 22.91 14.21 22.5 14.21H19.5C18.81 14.21 18.25 14.77 18.25 15.46C18.25 16.15 18.81 16.71 19.5 16.71H22.5C22.91 16.71 23.25 17.05 23.25 17.46C23.25 17.87 22.91 18.21 22.5 18.21Z" fill="#292D32"/>
</svg>
