<svg width="25" height="25" viewBox="0 0 25 25" fill="none" xmlns="http://www.w3.org/2000/svg">
<path d="M13.99 18.13H11.48C9.84 18.13 8.51 16.75 8.51 15.05C8.51 14.64 8.85 14.3 9.26 14.3C9.67 14.3 10.01 14.64 10.01 15.05C10.01 15.92 10.67 16.63 11.48 16.63H13.99C14.64 16.63 15.18 16.05 15.18 15.35C15.18 14.48 14.87 14.31 14.36 14.13L10.33 12.71C9.55 12.44 8.5 11.86 8.5 10.07C8.5 8.53004 9.71 7.29004 11.19 7.29004H13.7C15.34 7.29004 16.67 8.67004 16.67 10.37C16.67 10.78 16.33 11.12 15.92 11.12C15.51 11.12 15.17 10.78 15.17 10.37C15.17 9.50004 14.51 8.79004 13.7 8.79004H11.19C10.54 8.79004 10 9.37004 10 10.07C10 10.94 10.31 11.11 10.82 11.29L14.85 12.71C15.63 12.98 16.68 13.56 16.68 15.35C16.67 16.88 15.47 18.13 13.99 18.13Z" fill="#292D32"/>
<path d="M12.5898 19.46C12.1798 19.46 11.8398 19.12 11.8398 18.71V6.70996C11.8398 6.29996 12.1798 5.95996 12.5898 5.95996C12.9998 5.95996 13.3398 6.29996 13.3398 6.70996V18.71C13.3398 19.12 12.9998 19.46 12.5898 19.46Z" fill="#292D32"/>
<path d="M15.8488 24.96H9.15116C3.08977 24.96 0.5 22.3702 0.5 16.3088V9.61112C0.5 3.54973 3.08977 0.959961 9.15116 0.959961H15.8488C21.9102 0.959961 24.5 3.54973 24.5 9.61112V16.3088C24.5 22.3702 21.9102 24.96 15.8488 24.96ZM9.15116 2.63438C4.00512 2.63438 2.17442 4.46508 2.17442 9.61112V16.3088C2.17442 21.4548 4.00512 23.2855 9.15116 23.2855H15.8488C20.9949 23.2855 22.8256 21.4548 22.8256 16.3088V9.61112C22.8256 4.46508 20.9949 2.63438 15.8488 2.63438H9.15116Z" fill="#292D32"/>
</svg>
