<svg fill="none" height="24" viewBox="0 0 25 24" width="25" xmlns="http://www.w3.org/2000/svg">
    <path
        d="M6.64475 4.47059V0.705882C6.64475 0.518671 6.71411 0.339127 6.83758 0.206748C6.96105 0.0743694 7.1285 0 7.30311 0C7.47772 0 7.64518 0.0743694 7.76865 0.206748C7.89212 0.339127 7.96148 0.518671 7.96148 0.705882V4.47059C7.96148 4.6578 7.89212 4.83734 7.76865 4.96972C7.64518 5.1021 7.47772 5.17647 7.30311 5.17647C7.1285 5.17647 6.96105 5.1021 6.83758 4.96972C6.71411 4.83734 6.64475 4.6578 6.64475 4.47059ZM10.8144 5.17647C10.989 5.17647 11.1565 5.1021 11.2799 4.96972C11.4034 4.83734 11.4728 4.6578 11.4728 4.47059V0.705882C11.4728 0.518671 11.4034 0.339127 11.2799 0.206748C11.1565 0.0743694 10.989 0 10.8144 0C10.6398 0 10.4723 0.0743694 10.3489 0.206748C10.2254 0.339127 10.156 0.518671 10.156 0.705882V4.47059C10.156 4.6578 10.2254 4.83734 10.3489 4.96972C10.4723 5.1021 10.6398 5.17647 10.8144 5.17647ZM14.3257 5.17647C14.5003 5.17647 14.6677 5.1021 14.7912 4.96972C14.9147 4.83734 14.984 4.6578 14.984 4.47059V0.705882C14.984 0.518671 14.9147 0.339127 14.7912 0.206748C14.6677 0.0743694 14.5003 0 14.3257 0C14.1511 0 13.9836 0.0743694 13.8601 0.206748C13.7367 0.339127 13.6673 0.518671 13.6673 0.705882V4.47059C13.6673 4.6578 13.7367 4.83734 13.8601 4.96972C13.9836 5.1021 14.1511 5.17647 14.3257 5.17647ZM24.6401 12V12.9412C24.6405 14.1056 24.2172 15.2242 23.4602 16.0591C22.7032 16.894 21.6723 17.3793 20.5867 17.4118C19.9407 19.456 18.7538 21.2546 17.1709 22.5882H20.4704C20.645 22.5882 20.8125 22.6626 20.936 22.795C21.0594 22.9274 21.1288 23.1069 21.1288 23.2941C21.1288 23.4813 21.0594 23.6609 20.936 23.7933C20.8125 23.9256 20.645 24 20.4704 24H1.15837C0.983756 24 0.816298 23.9256 0.692831 23.7933C0.569363 23.6609 0.5 23.4813 0.5 23.2941C0.5 23.1069 0.569363 22.9274 0.692831 22.795C0.816298 22.6626 0.983756 22.5882 1.15837 22.5882H4.45788C3.22743 21.5521 2.23205 20.2305 1.54653 18.7226C0.861017 17.2147 0.503208 15.5598 0.5 13.8824V8.23529C0.5 8.04808 0.569363 7.86854 0.692831 7.73616C0.816298 7.60378 0.983756 7.52941 1.15837 7.52941H20.4704C21.5763 7.52941 22.6369 8.00042 23.4188 8.83882C24.2008 9.67721 24.6401 10.8143 24.6401 12ZM19.8121 13.8824V8.94118H1.81673V13.8824C1.82021 15.703 2.30258 17.4857 3.20842 19.0256C4.11426 20.5656 5.40684 21.8004 6.93772 22.5882H14.6911C16.222 21.8004 17.5145 20.5656 18.4204 19.0256C19.3262 17.4857 19.8086 15.703 19.8121 13.8824ZM23.3233 12C23.3231 11.3117 23.1064 10.6435 22.7082 10.1036C22.3099 9.56367 21.7535 9.18355 21.1288 9.02471V13.8824C21.1287 14.5789 21.0666 15.2738 20.9434 15.9576C21.6087 15.8377 22.2128 15.4689 22.6485 14.9167C23.0842 14.3644 23.3233 13.6645 23.3233 12.9412V12Z"
        fill="#33231F" />
</svg>
