<svg fill="none" height="22" viewBox="0 0 22 22" width="22" xmlns="http://www.w3.org/2000/svg">
    <path
        d="M11.091 20.5241C7.58771 20.5241 4.7413 18.0105 4.7413 14.9189V11.6783C4.7413 11.3193 5.03908 11.0215 5.39817 11.0215C5.75725 11.0215 6.05503 11.3193 6.05503 11.6783C6.05503 13.973 8.2183 15.7071 11.091 15.7071C13.9637 15.7071 16.127 13.973 16.127 11.6783C16.127 11.3193 16.4247 11.0215 16.7838 11.0215C17.1429 11.0215 17.4407 11.3193 17.4407 11.6783V14.9189C17.4407 18.0105 14.5943 20.5241 11.091 20.5241ZM6.05503 15.0152C6.11634 17.3361 8.34968 19.2104 11.091 19.2104C13.8323 19.2104 16.0656 17.3361 16.127 15.0152C14.9884 16.2501 13.1842 17.0208 11.091 17.0208C8.99778 17.0208 7.20235 16.2501 6.05503 15.0152Z"
        fill="#292D32" />
    <path
        d="M11.091 12.6418C8.67373 12.6418 6.50169 11.5558 5.44195 9.80418C4.98652 9.05973 4.7413 8.19267 4.7413 7.29934C4.7413 5.79293 5.41569 4.3741 6.63307 3.3056C7.82419 2.26337 9.40942 1.69409 11.091 1.69409C12.7726 1.69409 14.349 2.26338 15.5489 3.29684C16.7663 4.3741 17.4407 5.79293 17.4407 7.29934C17.4407 8.19267 17.1955 9.05097 16.74 9.80418C15.6803 11.5558 13.5083 12.6418 11.091 12.6418ZM11.091 3.00782C9.72471 3.00782 8.44603 3.46325 7.49139 4.30403C6.56302 5.10979 6.05503 6.17829 6.05503 7.29934C6.05503 7.9562 6.23018 8.56927 6.56299 9.12104C7.39502 10.4873 9.12916 11.3281 11.091 11.3281C13.0528 11.3281 14.787 10.4786 15.619 9.12104C15.9606 8.56927 16.127 7.9562 16.127 7.29934C16.127 6.17829 15.619 5.10979 14.6819 4.28652C13.7272 3.46325 12.4573 3.00782 11.091 3.00782Z"
        fill="#292D32" />
    <path
        d="M11.091 17.0209C7.47386 17.0209 4.7413 14.7263 4.7413 11.6784V7.29934C4.7413 4.20769 7.58771 1.69409 11.091 1.69409C12.7726 1.69409 14.349 2.26338 15.5489 3.29684C16.7663 4.3741 17.4407 5.79293 17.4407 7.29934V11.6784C17.4407 14.7263 14.7081 17.0209 11.091 17.0209ZM11.091 3.00782C8.31464 3.00782 6.05503 4.93462 6.05503 7.29934V11.6784C6.05503 13.9731 8.2183 15.7072 11.091 15.7072C13.9637 15.7072 16.127 13.9731 16.127 11.6784V7.29934C16.127 6.17829 15.619 5.10979 14.6819 4.28652C13.7272 3.46325 12.4573 3.00782 11.091 3.00782Z"
        fill="#292D32" />
</svg>
