<svg fill="none" height="19" viewBox="0 0 19 19" width="19" xmlns="http://www.w3.org/2000/svg">
    <path
        d="M9.16644 18.5239C8.63451 18.5239 8.13635 18.3213 7.76484 17.9414L6.48146 16.658C6.38014 16.5566 6.10995 16.4469 5.97486 16.4469H4.15109C3.05346 16.4469 2.1669 15.5602 2.1669 14.4626V12.6389C2.1669 12.5038 2.05714 12.2337 1.95582 12.1323L0.672437 10.8489C0.300929 10.4774 0.0898438 9.97924 0.0898438 9.44731C0.0898438 8.91538 0.292486 8.41719 0.672437 8.04569L1.95582 6.76228C2.05714 6.66096 2.1669 6.3908 2.1669 6.2557V4.43201C2.1669 3.33438 3.05346 2.44775 4.15109 2.44775H5.97486C6.10995 2.44775 6.38014 2.33798 6.48146 2.23666L7.76484 0.953257C8.50786 0.210242 9.82502 0.210242 10.568 0.953257L11.8514 2.23666C11.9527 2.33798 12.2229 2.44775 12.358 2.44775H14.1818C15.2794 2.44775 16.166 3.33438 16.166 4.43201V6.2557C16.166 6.3908 16.2757 6.66096 16.3771 6.76228L17.6604 8.04569C18.032 8.41719 18.243 8.91538 18.243 9.44731C18.243 9.97924 18.0404 10.4774 17.6604 10.8489L16.3771 12.1323C16.2757 12.2337 16.166 12.5038 16.166 12.6389V14.4626C16.166 15.5602 15.2794 16.4469 14.1818 16.4469H12.358C12.2229 16.4469 11.9527 16.5566 11.8514 16.658L10.568 17.9414C10.1965 18.3213 9.69837 18.5239 9.16644 18.5239ZM2.85081 11.2373C3.18854 11.575 3.4334 12.1661 3.4334 12.6389V14.4626C3.4334 14.8594 3.75425 15.1804 4.15109 15.1804H5.97486C6.44768 15.1804 7.03872 15.4252 7.37646 15.7629L8.65983 17.0463C8.93002 17.3165 9.40286 17.3165 9.67305 17.0463L10.9564 15.7629C11.2942 15.4252 11.8852 15.1804 12.358 15.1804H14.1818C14.5786 15.1804 14.8995 14.8594 14.8995 14.4626V12.6389C14.8995 12.1661 15.1443 11.575 15.4821 11.2373L16.7655 9.95389C16.9005 9.8188 16.9765 9.64151 16.9765 9.44731C16.9765 9.25311 16.9005 9.07582 16.7655 8.94073L15.4821 7.65733C15.1443 7.31959 14.8995 6.72853 14.8995 6.2557V4.43201C14.8995 4.03518 14.5786 3.71425 14.1818 3.71425H12.358C11.8852 3.71425 11.2942 3.46944 10.9564 3.13171L9.67305 1.8483C9.40286 1.57811 8.93002 1.57811 8.65983 1.8483L7.37646 3.13171C7.03872 3.46944 6.44768 3.71425 5.97486 3.71425H4.15109C3.75425 3.71425 3.4334 4.03518 3.4334 4.43201V6.2557C3.4334 6.72853 3.18854 7.31959 2.85081 7.65733L1.56743 8.94073C1.43234 9.07582 1.35635 9.25311 1.35635 9.44731C1.35635 9.64151 1.43234 9.8188 1.56743 9.95389L2.85081 11.2373Z"
        fill="#33231F" />
    <path
        d="M11.6997 12.8247C11.2269 12.8247 10.8469 12.4447 10.8469 11.9803C10.8469 11.5159 11.2269 11.136 11.6913 11.136C12.1556 11.136 12.5356 11.5159 12.5356 11.9803C12.5356 12.4447 12.1641 12.8247 11.6997 12.8247Z"
        fill="#33231F" />
    <path
        d="M6.64185 7.75874C6.16902 7.75874 5.78906 7.37879 5.78906 6.9144C5.78906 6.45002 6.16901 6.07007 6.6334 6.07007C7.09778 6.07007 7.47773 6.45002 7.47773 6.9144C7.47773 7.37879 7.10623 7.75874 6.64185 7.75874Z"
        fill="#33231F" />
    <path
        d="M6.63334 12.6136C6.47291 12.6136 6.31249 12.5545 6.18584 12.4279C5.94098 12.183 5.94098 11.7777 6.18584 11.5329L11.2518 6.46685C11.4967 6.22199 11.902 6.22199 12.1468 6.46685C12.3917 6.7117 12.3917 7.11703 12.1468 7.36189L7.08083 12.4279C6.95418 12.5545 6.79376 12.6136 6.63334 12.6136Z"
        fill="#33231F" />
</svg>
