<svg fill="none" height="26" viewBox="0 0 25 26" width="25" xmlns="http://www.w3.org/2000/svg">
    <path
        d="M11.2774 23.6745C10.7836 23.6745 10.3001 23.5511 9.84748 23.3042C8.94219 22.8001 8.39696 21.8845 8.39696 20.8558V15.4035C8.39696 14.8891 8.05748 14.1176 7.73857 13.7266L3.8911 9.65285C3.243 9.00475 2.74921 7.89371 2.74921 7.06044V4.69435C2.74921 3.04837 3.99398 1.76245 5.57823 1.76245H19.1575C20.7212 1.76245 21.9866 3.0278 21.9866 4.59147V6.85469C21.9866 7.93486 21.3385 9.15906 20.7315 9.76601L16.2771 13.7061C15.845 14.0661 15.5055 14.8583 15.5055 15.4961V19.9196C15.5055 20.8352 14.9294 21.8948 14.2093 22.3269L12.7897 23.2424C12.3267 23.5305 11.8021 23.6745 11.2774 23.6745ZM5.57823 3.30555C4.85811 3.30555 4.29231 3.91251 4.29231 4.69435V7.06044C4.29231 7.44107 4.60093 8.18176 4.99185 8.57268L8.91133 12.6979C9.43599 13.346 9.95035 14.4262 9.95035 15.3932V20.8455C9.95035 21.5142 10.4133 21.8434 10.6087 21.9462C11.0408 22.1828 11.5655 22.1828 11.9667 21.936L13.3966 21.0204C13.6847 20.8455 13.9727 20.29 13.9727 19.9196V15.4961C13.9727 14.3953 14.5077 13.1814 15.2792 12.5333L19.6822 8.6344C20.032 8.28463 20.4537 7.45136 20.4537 6.8444V4.59147C20.4537 3.88165 19.8777 3.30555 19.1678 3.30555H5.57823V3.30555Z"
        fill="#33231F" />
    <path
        d="M6.1954 11.4323C6.05138 11.4323 5.91765 11.3912 5.78391 11.3192C5.42385 11.0929 5.31069 10.6094 5.53701 10.2493L10.6087 2.12229C10.835 1.76223 11.3082 1.64907 11.6683 1.87539C12.0283 2.10171 12.1415 2.57493 11.9152 2.93499L6.84351 11.062C6.69948 11.2986 6.45259 11.4323 6.1954 11.4323Z"
        fill="#33231F" />
</svg>
