<svg fill="none" height="25" viewBox="0 0 26 25" width="26" xmlns="http://www.w3.org/2000/svg">
    <path
        d="M2.1003 8.33827V8.32163C2.10028 6.67778 2.58713 5.07075 3.49942 3.70328C4.41172 2.33581 5.70859 1.26918 7.22642 0.637959C8.74425 0.00673365 10.415 -0.160805 12.028 0.15648C13.6409 0.473765 15.1238 1.26166 16.2894 2.42076C17.2065 1.96809 18.231 1.77776 19.2495 1.87081C20.268 1.96386 21.241 2.33666 22.0609 2.94802C22.8808 3.55938 23.5158 4.3855 23.8956 5.33511C24.2755 6.28472 24.3854 7.32085 24.2133 8.32903C24.4664 8.35251 24.7118 8.4279 24.9345 8.55049C25.1571 8.67307 25.352 8.84022 25.5071 9.04151C25.6623 9.24279 25.7742 9.47389 25.8361 9.72038C25.8979 9.96687 25.9083 10.2235 25.8665 10.4741C25.0307 15.5022 22.9633 18.6847 19.6679 20.0235V21.2662C19.6679 22.0019 19.3757 22.7074 18.8555 23.2276C18.3353 23.7478 17.6298 24.04 16.8941 24.04H9.4972C8.76153 24.04 8.056 23.7478 7.5358 23.2276C7.01561 22.7074 6.72336 22.0019 6.72336 21.2662V20.0235C3.42805 18.6847 1.36061 15.5022 0.524762 10.4741C0.484423 10.2301 0.493443 9.98048 0.551289 9.74002C0.609134 9.49955 0.71463 9.27313 0.861533 9.07415C1.00844 8.87518 1.19376 8.7077 1.40654 8.58161C1.61932 8.45553 1.85522 8.37342 2.1003 8.34013V8.33827ZM3.94953 8.32163H5.79875C5.79875 7.09552 6.28582 5.91963 7.15281 5.05263C8.01981 4.18564 9.1957 3.69857 10.4218 3.69857C11.6479 3.69857 12.8238 4.18564 13.6908 5.05263C14.5578 5.91963 15.0449 7.09552 15.0449 8.32163H16.8941C16.8941 6.60508 16.2122 4.95882 14.9984 3.74504C13.7846 2.53125 12.1384 1.84935 10.4218 1.84935C8.70525 1.84935 7.059 2.53125 5.84522 3.74504C4.63143 4.95882 3.94953 6.60508 3.94953 8.32163ZM7.64797 8.32163H13.1956C13.1956 7.58596 12.9034 6.88043 12.3832 6.36023C11.863 5.84004 11.1575 5.5478 10.4218 5.5478C9.68614 5.5478 8.98061 5.84004 8.46041 6.36023C7.94022 6.88043 7.64797 7.58596 7.64797 8.32163ZM20.3448 8.32163H22.3253C22.4649 7.77513 22.4779 7.20398 22.3633 6.65169C22.2488 6.0994 22.0096 5.58055 21.6642 5.13468C21.3187 4.6888 20.876 4.32767 20.3698 4.0788C19.8637 3.82992 19.3074 3.69988 18.7433 3.69857C18.2995 3.69857 17.8779 3.77624 17.4858 3.91863C17.8132 4.44381 18.0831 5.00967 18.2903 5.60327C18.6425 5.51592 19.0126 5.5339 19.3547 5.655C19.6967 5.7761 19.9957 5.99499 20.2145 6.28449C20.4333 6.57399 20.5623 6.92137 20.5855 7.28351C20.6086 7.64566 20.5249 8.00663 20.3448 8.32163ZM17.8187 20.3416H8.57259V21.2662C8.57259 21.5114 8.67 21.7466 8.8434 21.92C9.0168 22.0934 9.25198 22.1908 9.4972 22.1908H16.8941C17.1393 22.1908 17.3745 22.0934 17.5479 21.92C17.7213 21.7466 17.8187 21.5114 17.8187 21.2662V20.3416ZM7.92166 18.4924H18.4696C21.4025 17.5493 23.2591 14.8827 24.0432 10.1709H2.3481C3.13217 14.8827 4.98879 17.5493 7.92166 18.4924Z"
        fill="#292D32" />
</svg>
