<svg fill="none" height="25" viewBox="0 0 24 25" width="24" xmlns="http://www.w3.org/2000/svg">
    <path
        d="M16.9897 10.6699H7.00977C6.59977 10.6699 6.25977 10.3299 6.25977 9.91992C6.25977 9.50992 6.59977 9.16992 7.00977 9.16992H16.9897C17.3997 9.16992 17.7397 9.50992 17.7397 9.91992C17.7397 10.3299 17.3997 10.6699 16.9897 10.6699Z"
        fill="#292D32" />
    <path
        d="M12 10.67C11.59 10.67 11.25 10.33 11.25 9.91998V8.23999C11.25 7.82999 11.59 7.48999 12 7.48999C12.41 7.48999 12.75 7.82999 12.75 8.23999V9.91998C12.75 10.33 12.41 10.67 12 10.67Z"
        fill="#292D32" />
    <path
        d="M7 18.4299C6.59 18.4299 6.25 18.0899 6.25 17.6799C6.25 17.2699 6.59 16.9299 7 16.9299C10.72 16.9299 13.75 13.7799 13.75 9.8999C13.75 9.4899 14.09 9.1499 14.5 9.1499C14.91 9.1499 15.25 9.4899 15.25 9.8999C15.25 14.6099 11.55 18.4299 7 18.4299Z"
        fill="#292D32" />
    <path
        d="M17.0002 18.4299C15.0302 18.4299 13.2002 17.45 11.8602 15.66C11.6102 15.33 11.6802 14.86 12.0102 14.61C12.3402 14.36 12.8102 14.43 13.0602 14.76C14.1202 16.16 15.5202 16.9299 17.0102 16.9299C17.4202 16.9299 17.7602 17.2699 17.7602 17.6799C17.7602 18.0899 17.4102 18.4299 17.0002 18.4299Z"
        fill="#292D32" />
    <path
        d="M12 23.71C6.07 23.71 1.25 18.89 1.25 12.96C1.25 7.02996 6.07 2.20996 12 2.20996C17.93 2.20996 22.75 7.02996 22.75 12.96C22.75 18.89 17.93 23.71 12 23.71ZM12 3.70996C6.9 3.70996 2.75 7.85996 2.75 12.96C2.75 18.06 6.9 22.21 12 22.21C17.1 22.21 21.25 18.06 21.25 12.96C21.25 7.85996 17.1 3.70996 12 3.70996Z"
        fill="#292D32" />
</svg>
