<svg width="24" height="25" viewBox="0 0 24 25" fill="none" xmlns="http://www.w3.org/2000/svg">
<path d="M11.9999 15.1299C9.86988 15.1299 8.12988 13.3999 8.12988 11.2599C8.12988 9.1199 9.86988 7.3999 11.9999 7.3999C14.1299 7.3999 15.8699 9.1299 15.8699 11.2699C15.8699 13.4099 14.1299 15.1299 11.9999 15.1299ZM11.9999 8.8999C10.6999 8.8999 9.62988 9.9599 9.62988 11.2699C9.62988 12.5799 10.6899 13.6399 11.9999 13.6399C13.3099 13.6399 14.3699 12.5799 14.3699 11.2699C14.3699 9.9599 13.2999 8.8999 11.9999 8.8999Z" fill="#33231F"/>
<path d="M12.0002 23.72C10.5202 23.72 9.03018 23.16 7.87018 22.05C4.92018 19.21 1.66018 14.68 2.89018 9.28996C4.00018 4.39996 8.27018 2.20996 12.0002 2.20996C12.0002 2.20996 12.0002 2.20996 12.0102 2.20996C15.7402 2.20996 20.0102 4.39996 21.1202 9.29996C22.3402 14.69 19.0802 19.21 16.1302 22.05C14.9702 23.16 13.4802 23.72 12.0002 23.72ZM12.0002 3.70996C9.09018 3.70996 5.35018 5.25996 4.36018 9.61996C3.28018 14.33 6.24018 18.39 8.92018 20.96C10.6502 22.63 13.3602 22.63 15.0902 20.96C17.7602 18.39 20.7202 14.33 19.6602 9.61996C18.6602 5.25996 14.9102 3.70996 12.0002 3.70996Z" fill="#33231F"/>
</svg>
