<svg fill="none" height="43" viewBox="0 0 109 43" width="109" xmlns="http://www.w3.org/2000/svg">
    <path
        d="M21.0109 40.1438C19.9203 41.0266 18.6739 41.7537 17.2717 42.2211C15.8695 42.6885 14.4154 42.9481 12.9094 42.9481C10.4686 42.9481 8.2355 42.4288 6.31401 41.3382C4.39251 40.2477 2.88646 38.7416 1.74395 36.8721C0.653369 35.0025 0.0821228 32.8213 0.0821228 30.4324C0.0821228 27.9916 0.653372 25.8624 1.79588 23.9928C2.9384 22.1233 4.49636 20.6172 6.36593 19.5267C8.28742 18.4361 10.3647 17.9167 12.5978 17.9167C14.2596 17.9167 15.8176 18.1764 17.2717 18.6438C18.7258 19.1112 19.9722 19.8382 21.0109 20.7211C20.4915 21.3962 19.9722 22.0194 19.4529 22.6945C18.57 22.0194 17.5833 21.4481 16.4408 20.9808C15.2983 20.5134 14.0519 20.3056 12.7536 20.3056C10.936 20.3056 9.27415 20.773 7.82004 21.6559C6.314 22.5387 5.11956 23.7851 4.23671 25.3431C3.35386 26.901 2.88647 28.6148 2.88647 30.4844C2.88647 32.3539 3.35386 34.0158 4.23671 35.5737C5.11956 37.1317 6.31401 38.3262 7.87198 39.261C9.42995 40.1438 11.1437 40.6112 13.0133 40.6112C14.2597 40.6112 15.4022 40.4035 16.4408 40.0399C17.5314 39.6245 18.4662 39.1052 19.349 38.482C19.9203 38.9494 20.4915 39.5725 21.0109 40.1438Z"
        fill="#33231F" />
    <path d="M25.9963 0H28.9046V42.4807H25.9963C25.9963 28.3551 25.9963 14.1775 25.9963 0Z"
        fill="#33231F" />
    <path
        d="M46.7174 43C44.4323 43 42.3551 42.4807 40.4855 41.4421C38.6159 40.4034 37.1618 38.9493 36.0712 37.0278C34.9807 35.1582 34.4613 32.9252 34.4613 30.4324C34.4613 27.7839 35.0326 25.4988 36.1751 23.5773C37.3176 21.6558 38.8756 20.2017 40.849 19.215C42.8225 18.2283 45.0555 17.709 47.5483 17.709C49.6775 17.709 51.7029 18.3322 53.6244 19.6305C55.5459 20.8768 56.8961 22.4868 57.727 24.4083C57.5712 24.7198 57.4154 24.9795 57.3116 25.2911C57.4154 23.0061 57.5712 20.7211 57.6751 18.436H60.2717V42.5326H57.3635V35.1063C57.5712 35.4699 57.779 35.8334 57.9867 36.1969C57.6751 37.0278 57.2077 37.8068 56.5326 38.6377C55.8575 39.4167 54.9746 40.1957 53.9879 40.8708C53.0012 41.5459 51.8587 42.0653 50.6642 42.4807C49.3659 42.7923 48.0676 43 46.7174 43ZM47.3406 40.5073C49.1582 40.5073 50.7681 40.1438 52.2222 39.3648C53.6763 38.5858 54.8707 37.5471 55.7536 36.1969C56.6364 34.8467 57.1558 33.2887 57.3116 31.523V28.0955C57 26.5894 56.3249 25.2392 55.3901 24.0447C54.4034 22.8503 53.2608 21.9155 51.8587 21.1884C50.4565 20.5133 48.9505 20.1498 47.2886 20.1498C45.471 20.1498 43.8092 20.5653 42.3031 21.3962C40.7971 22.2271 39.5507 23.4215 38.6679 24.9276C37.785 26.4336 37.3176 28.2512 37.3176 30.2766C37.3176 32.1462 37.785 33.8599 38.6679 35.4179C39.5507 36.9759 40.7971 38.1703 42.3551 39.1051C43.8611 40.0399 45.5229 40.5073 47.3406 40.5073Z"
        fill="#33231F" />
    <path
        d="M70.6062 18.384C70.7101 20.8249 70.8139 23.3176 70.9178 25.7584C70.8139 25.4468 70.6581 25.1352 70.5543 24.8236C71.0736 23.3695 71.9045 22.0712 73.099 20.9807C74.2415 19.8901 75.5398 19.1111 76.942 18.5398C78.3441 17.9686 79.6944 17.657 81.0446 17.657C80.9927 18.5918 80.9408 19.5265 80.9408 20.5133C79.0712 20.5133 77.4094 20.9287 75.9033 21.7596C74.3973 22.5906 73.2028 23.6811 72.32 25.0314C71.4371 26.3816 71.0217 27.9396 71.0217 29.6534C71.0217 33.9118 71.0217 38.1703 71.0217 42.3768H68.1135C68.1135 34.3273 68.1135 26.3297 68.1135 18.2802H70.6062V18.384Z"
        fill="#33231F" />
    <path
        d="M82.7584 30.2767C82.7584 27.9398 83.3297 25.8105 84.4722 23.889C85.6147 21.9675 87.1207 20.4096 89.0941 19.319C91.0676 18.1765 93.2488 17.6052 95.6376 17.6052C98.0785 17.6052 100.312 18.1765 102.233 19.319C104.155 20.4615 105.661 21.9675 106.803 23.889C107.894 25.8105 108.465 27.9398 108.465 30.2767C108.465 32.6137 107.894 34.7429 106.803 36.6644C105.713 38.5859 104.155 40.1439 102.233 41.2345C100.26 42.377 98.0784 42.9482 95.6896 42.9482C93.2487 42.9482 91.0156 42.4289 89.0941 41.3383C87.1726 40.2477 85.6147 38.7417 84.5241 36.8202C83.3297 34.9506 82.7584 32.7695 82.7584 30.2767ZM85.6666 30.3287C85.6666 32.1982 86.0821 33.912 86.9649 35.47C87.8478 37.0279 89.0422 38.2224 90.5483 39.1572C92.0543 40.04 93.7161 40.5074 95.5857 40.5074C97.4553 40.5074 99.1171 40.04 100.623 39.1572C102.129 38.2743 103.324 37.0279 104.206 35.47C105.089 33.912 105.505 32.1982 105.505 30.3287C105.505 28.4591 105.089 26.7453 104.206 25.1874C103.324 23.6294 102.129 22.4349 100.623 21.5002C99.1171 20.5654 97.4553 20.098 95.5857 20.098C93.7161 20.098 92.0024 20.5654 90.4963 21.5521C88.9903 22.5388 87.7958 23.7852 86.9649 25.3431C86.0821 26.9011 85.6666 28.6149 85.6666 30.3287Z"
        fill="#33231F" />
</svg>
