<svg fill="none" height="37" viewBox="0 0 94 37" width="94" xmlns="http://www.w3.org/2000/svg">
    <path
        d="M18.0085 34.5423C17.0701 35.302 15.9976 35.9276 14.7911 36.3298C13.5846 36.732 12.3334 36.9554 11.0375 36.9554C8.93722 36.9554 7.01573 36.5085 5.36235 35.5701C3.70897 34.6317 2.41307 33.3358 1.42997 31.7271C0.491568 30.1184 3.05176e-05 28.2416 3.05176e-05 26.1861C3.05176e-05 24.0858 0.491571 22.2537 1.47466 20.645C2.45775 19.0363 3.79833 17.7404 5.40702 16.802C7.06041 15.8636 8.84784 15.4167 10.7693 15.4167C12.1993 15.4167 13.5399 15.6402 14.7911 16.0423C16.0423 16.4445 17.1148 17.0701 18.0085 17.8298C17.5616 18.4107 17.1148 18.9469 16.6679 19.5279C15.9082 18.9469 15.0592 18.4554 14.0761 18.0532C13.093 17.651 12.0206 17.4723 10.9034 17.4723C9.3394 17.4723 7.90945 17.8745 6.65824 18.6341C5.36235 19.3938 4.33457 20.4663 3.57491 21.8068C2.81525 23.1474 2.41307 24.6221 2.41307 26.2307C2.41307 27.8394 2.81525 29.2694 3.57491 30.61C4.33457 31.9506 5.36235 32.9783 6.70293 33.7827C8.04351 34.5424 9.51814 34.9445 11.1268 34.9445C12.1993 34.9445 13.1824 34.7658 14.0761 34.453C15.0145 34.0955 15.8189 33.6486 16.5785 33.1124C17.0701 33.5146 17.5616 34.0508 18.0085 34.5423Z"
        fill="#FFF7E1" />
    <path d="M22.2983 0H24.8007V36.5531H22.2983C22.2983 24.3985 22.2983 12.1993 22.2983 0Z"
        fill="#FFF7E1" />
    <path
        d="M40.128 37.0001C38.1618 37.0001 36.3744 36.5532 34.7657 35.6595C33.157 34.7658 31.9058 33.5146 30.9674 31.8612C30.029 30.2525 29.5821 28.331 29.5821 26.1861C29.5821 23.9071 30.0737 21.9409 31.0568 20.2875C32.0399 18.6342 33.3804 17.383 35.0785 16.5339C36.7766 15.6849 38.6981 15.238 40.843 15.238C42.6751 15.238 44.4179 15.7743 46.0712 16.8914C47.7246 17.9639 48.8865 19.3491 49.6015 21.0025C49.4674 21.2706 49.3333 21.4941 49.244 21.7622C49.3333 19.796 49.4674 17.8298 49.5568 15.8636H51.7911V36.5979H49.2886V30.2078C49.4674 30.5206 49.6461 30.8334 49.8249 31.1462C49.5568 31.8612 49.1546 32.5315 48.5737 33.2465C47.9927 33.9168 47.2331 34.5871 46.3841 35.168C45.535 35.7489 44.5519 36.1958 43.5242 36.5532C42.407 36.8214 41.2899 37.0001 40.128 37.0001ZM40.6643 34.8552C42.2283 34.8552 43.6135 34.5424 44.8647 33.8721C46.1159 33.2018 47.1437 32.3081 47.9034 31.1462C48.663 29.9844 49.1099 28.6438 49.244 27.1245V24.1752C48.9758 22.8793 48.3949 21.7175 47.5906 20.6897C46.7415 19.6619 45.7584 18.8576 44.5519 18.232C43.3454 17.6511 42.0495 17.3383 40.6196 17.3383C39.0556 17.3383 37.6256 17.6958 36.3297 18.4107C35.0338 19.1257 33.9614 20.1535 33.2017 21.4494C32.442 22.7453 32.0399 24.3093 32.0399 26.052C32.0399 27.6607 32.442 29.1354 33.2017 30.4759C33.9614 31.8165 35.0338 32.8443 36.3744 33.6487C37.6703 34.453 39.1002 34.8552 40.6643 34.8552Z"
        fill="#FFF7E1" />
    <path
        d="M60.6836 15.8187C60.7729 17.919 60.8623 20.0639 60.9517 22.1641C60.8623 21.896 60.7282 21.6279 60.6389 21.3598C61.0857 20.1086 61.8007 18.9914 62.8285 18.053C63.8116 17.1146 64.9287 16.4443 66.1353 15.9528C67.3418 15.4612 68.5036 15.1931 69.6654 15.1931C69.6207 15.9975 69.5761 16.8018 69.5761 17.6508C67.9674 17.6508 66.5374 18.0083 65.2415 18.7233C63.9456 19.4383 62.9179 20.3767 62.1582 21.5385C61.3985 22.7004 61.041 24.0409 61.041 25.5156C61.041 29.1798 61.041 32.8441 61.041 36.4636H58.5386C58.5386 29.5373 58.5386 22.6557 58.5386 15.7293H60.6836V15.8187Z"
        fill="#FFF7E1" />
    <path
        d="M71.1401 26.0521C71.1401 24.0412 71.6316 22.2091 72.6147 20.5557C73.5978 18.9023 74.8937 17.5617 76.5918 16.6233C78.2898 15.6402 80.1667 15.1487 82.2222 15.1487C84.3225 15.1487 86.244 15.6402 87.8973 16.6233C89.5507 17.6064 90.8466 18.9023 91.8297 20.5557C92.7681 22.2091 93.2597 24.0412 93.2597 26.0521C93.2597 28.0629 92.7681 29.8951 91.8297 31.5484C90.8913 33.2018 89.5507 34.5424 87.8973 35.4808C86.1993 36.4639 84.3225 36.9554 82.2669 36.9554C80.1667 36.9554 78.2452 36.5086 76.5918 35.5702C74.9384 34.6318 73.5978 33.3359 72.6594 31.6825C71.6316 30.0738 71.1401 28.197 71.1401 26.0521ZM73.6425 26.0967C73.6425 27.7054 74 29.1801 74.7597 30.5207C75.5193 31.8612 76.5471 32.889 77.843 33.6934C79.1389 34.453 80.5688 34.8552 82.1775 34.8552C83.7862 34.8552 85.2162 34.453 86.5121 33.6934C87.808 32.9337 88.8357 31.8612 89.5954 30.5207C90.3551 29.1801 90.7126 27.7054 90.7126 26.0967C90.7126 24.4881 90.3551 23.0134 89.5954 21.6728C88.8357 20.3323 87.808 19.3045 86.5121 18.5001C85.2162 17.6958 83.7862 17.2936 82.1775 17.2936C80.5688 17.2936 79.0942 17.6958 77.7983 18.5448C76.5024 19.3939 75.4746 20.4663 74.7597 21.8069C74 23.1475 73.6425 24.6221 73.6425 26.0967Z"
        fill="#FFF7E1" />
</svg>
