<svg fill="none" height="24" viewBox="0 0 24 24" width="24" xmlns="http://www.w3.org/2000/svg">
    <path
        d="M15.81 20.18C15.55 20.18 15.28 20.17 14.99 20.14C14.47 20.1 13.88 20 13.27 19.85L11.59 19.45C6.98001 18.36 5.47001 15.92 6.55001 11.32L7.53001 7.13001C7.75001 6.18002 8.01001 5.41002 8.33001 4.77002C10.05 1.22002 13.34 1.54001 15.68 2.09001L17.35 2.48001C19.69 3.03001 21.17 3.90001 22 5.23002C22.82 6.56002 22.95 8.27001 22.4 10.61L21.42 14.79C20.56 18.45 18.77 20.18 15.81 20.18ZM13.12 3.25001C11.45 3.25001 10.39 3.94002 9.68001 5.42002C9.42001 5.96002 9.19001 6.63001 8.99001 7.47001L8.01001 11.66C7.12001 15.44 8.15001 17.09 11.93 17.99L13.61 18.39C14.15 18.52 14.66 18.6 15.12 18.64C17.84 18.91 19.19 17.72 19.95 14.45L20.93 10.27C21.38 8.34002 21.32 6.99002 20.72 6.02001C20.12 5.05001 18.94 4.39002 17 3.94002L15.33 3.55001C14.5 3.35001 13.76 3.25001 13.12 3.25001Z"
        fill="#9A9A9A" />
    <path
        d="M8.32999 22.2499C5.75999 22.2499 4.11999 20.7099 3.06999 17.4599L1.78999 13.5099C0.369991 9.10993 1.63999 6.62993 6.01999 5.20993L7.59999 4.69993C8.11999 4.53993 8.50999 4.42993 8.85999 4.36993C9.14999 4.30993 9.42999 4.41993 9.59999 4.64993C9.76999 4.87993 9.79999 5.17993 9.67999 5.43993C9.41999 5.96993 9.18999 6.63993 8.99999 7.47993L8.01999 11.6699C7.12999 15.4499 8.15999 17.0999 11.94 17.9999L13.62 18.3999C14.16 18.5299 14.67 18.6099 15.13 18.6499C15.45 18.6799 15.71 18.8999 15.8 19.2099C15.88 19.5199 15.76 19.8399 15.5 20.0199C14.84 20.4699 14.01 20.8499 12.96 21.1899L11.38 21.7099C10.23 22.0699 9.22999 22.2499 8.32999 22.2499ZM7.77999 6.21993L6.48999 6.63993C2.91999 7.78993 2.06999 9.46993 3.21999 13.0499L4.49999 16.9999C5.65999 20.5699 7.33999 21.4299 10.91 20.2799L12.49 19.7599C12.55 19.7399 12.6 19.7199 12.66 19.6999L11.6 19.4499C6.98999 18.3599 5.47999 15.9199 6.55999 11.3199L7.53999 7.12993C7.60999 6.80993 7.68999 6.49993 7.77999 6.21993Z"
        fill="#9A9A9A" />
    <path
        d="M17.49 10.51C17.43 10.51 17.37 10.5 17.3 10.49L12.45 9.26002C12.05 9.16002 11.81 8.75002 11.91 8.35002C12.01 7.95002 12.42 7.71002 12.82 7.81002L17.67 9.04002C18.07 9.14002 18.31 9.55002 18.21 9.95002C18.13 10.28 17.82 10.51 17.49 10.51Z"
        fill="#9A9A9A" />
    <path
        d="M14.56 13.8899C14.5 13.8899 14.44 13.8799 14.37 13.8699L11.46 13.1299C11.06 13.0299 10.82 12.6199 10.92 12.2199C11.02 11.8199 11.43 11.5799 11.83 11.6799L14.74 12.4199C15.14 12.5199 15.38 12.9299 15.28 13.3299C15.2 13.6699 14.9 13.8899 14.56 13.8899Z"
        fill="#9A9A9A" />
</svg>
