<svg fill="none" height="25" viewBox="0 0 24 25" width="24" xmlns="http://www.w3.org/2000/svg">
    <path
        d="M8 6.70996C7.59 6.70996 7.25 6.36996 7.25 5.95996V2.95996C7.25 2.54996 7.59 2.20996 8 2.20996C8.41 2.20996 8.75 2.54996 8.75 2.95996V5.95996C8.75 6.36996 8.41 6.70996 8 6.70996Z"
        fill="#292D32" />
    <path
        d="M16 6.70996C15.59 6.70996 15.25 6.36996 15.25 5.95996V2.95996C15.25 2.54996 15.59 2.20996 16 2.20996C16.41 2.20996 16.75 2.54996 16.75 2.95996V5.95996C16.75 6.36996 16.41 6.70996 16 6.70996Z"
        fill="#292D32" />
    <path
        d="M14.68 23.71H8C4.35 23.71 2.25 21.61 2.25 17.96V9.45996C2.25 5.80996 4.35 3.70996 8 3.70996H16C19.65 3.70996 21.75 5.80996 21.75 9.45996V14.59C21.75 14.88 21.58 15.14 21.33 15.27C21.07 15.39 20.76 15.3599 20.54 15.1799C18.96 13.9199 16.53 13.92 14.95 15.21C13.87 16.06 13.26 17.33 13.26 18.72C13.26 19.54 13.48 20.34 13.91 21.03C14.24 21.57 14.65 22.02 15.13 22.36C15.39 22.55 15.51 22.89 15.41 23.2C15.29 23.5 15.01 23.71 14.68 23.71ZM8 5.20996C5.14 5.20996 3.75 6.59996 3.75 9.45996V17.96C3.75 20.82 5.14 22.21 8 22.21H12.89C12.79 22.08 12.7 21.94 12.62 21.8C12.05 20.88 11.75 19.81 11.75 18.71C11.75 16.86 12.57 15.16 14.01 14.03C15.72 12.64 18.25 12.3399 20.25 13.2599V9.45996C20.25 6.59996 18.86 5.20996 16 5.20996H8Z"
        fill="#292D32" />
    <path
        d="M13 12.71H7C6.59 12.71 6.25 12.37 6.25 11.96C6.25 11.55 6.59 11.21 7 11.21H13C13.41 11.21 13.75 11.55 13.75 11.96C13.75 12.37 13.41 12.71 13 12.71Z"
        fill="#292D32" />
    <path
        d="M9.62 17.71H7C6.59 17.71 6.25 17.37 6.25 16.96C6.25 16.55 6.59 16.21 7 16.21H9.62C10.03 16.21 10.37 16.55 10.37 16.96C10.37 17.37 10.04 17.71 9.62 17.71Z"
        fill="#292D32" />
    <path
        d="M17.75 24.7099C16.47 24.7099 15.26 24.3099 14.24 23.5699C13.6 23.1099 13.05 22.51 12.62 21.8C12.05 20.88 11.75 19.8099 11.75 18.7099C11.75 16.8599 12.57 15.1599 14.01 14.0299C16.09 12.3399 19.37 12.3299 21.47 13.9999C22.92 15.1399 23.75 16.8599 23.75 18.7099C23.75 19.8099 23.45 20.88 22.88 21.8C22.56 22.35 22.15 22.8299 21.68 23.2199C20.61 24.1799 19.21 24.7099 17.75 24.7099ZM17.75 14.2099C16.73 14.2099 15.73 14.5599 14.94 15.1999C13.86 16.0499 13.25 17.3199 13.25 18.7099C13.25 19.5299 13.47 20.3299 13.9 21.0199C14.23 21.5599 14.64 22.0099 15.12 22.3499C15.89 22.91 16.8 23.2099 17.75 23.2099C18.86 23.2099 19.88 22.8199 20.7 22.0899C21.06 21.7899 21.35 21.4399 21.59 21.0299C22.02 20.3299 22.25 19.5299 22.25 18.7099C22.25 17.3199 21.63 16.0399 20.54 15.1799C19.74 14.5399 18.78 14.2099 17.75 14.2099Z"
        fill="#292D32" />
    <path
        d="M17.75 21.96C17.34 21.96 17 21.62 17 21.21C17 20.25 16.21 19.46 15.25 19.46C14.84 19.46 14.5 19.12 14.5 18.71C14.5 18.3 14.84 17.96 15.25 17.96C16.21 17.96 17 17.17 17 16.21C17 15.8 17.34 15.46 17.75 15.46C18.16 15.46 18.5 15.8 18.5 16.21C18.5 17.17 19.29 17.96 20.25 17.96C20.66 17.96 21 18.3 21 18.71C21 19.12 20.66 19.46 20.25 19.46C19.29 19.46 18.5 20.25 18.5 21.21C18.5 21.62 18.16 21.96 17.75 21.96ZM17.32 18.71C17.47 18.84 17.62 18.98 17.75 19.14C17.88 18.99 18.02 18.84 18.18 18.71C18.03 18.58 17.88 18.44 17.75 18.28C17.62 18.44 17.48 18.58 17.32 18.71Z"
        fill="#292D32" />
</svg>
