<svg fill="none" height="22" viewBox="0 0 22 22" width="22" xmlns="http://www.w3.org/2000/svg">
    <path
        d="M10.9612 9.69486C10.5877 9.69486 10.278 9.38517 10.278 9.01172V5.97855C10.278 5.6051 10.5877 5.29541 10.9612 5.29541C11.3346 5.29541 11.6443 5.6051 11.6443 5.97855V9.01172C11.6443 9.39428 11.3346 9.69486 10.9612 9.69486Z"
        fill="#33231F" />
    <path
        d="M10.9794 18.6487C8.62934 18.6487 6.28843 18.2753 4.05682 17.5284C3.22794 17.2551 2.59945 16.663 2.32619 15.9161C2.05293 15.1692 2.14402 14.313 2.59034 13.5661L3.74713 11.6351C4.00217 11.207 4.22988 10.4054 4.22988 9.90446V7.99166C4.22988 4.26624 7.25394 1.24219 10.9794 1.24219C14.7048 1.24219 17.7288 4.26624 17.7288 7.99166V9.90446C17.7288 10.3963 17.9565 11.207 18.2116 11.6351L19.3684 13.5661C19.7965 14.2766 19.8693 15.1237 19.587 15.8979C19.3046 16.6721 18.6852 17.2642 17.9019 17.5284C15.6703 18.2844 13.3294 18.6487 10.9794 18.6487ZM10.9794 2.61759C8.00995 2.61759 5.59617 5.03136 5.59617 8.00077V9.91357C5.59617 10.6514 5.3047 11.7171 4.92214 12.3456L3.76535 14.2857C3.52852 14.6774 3.47387 15.0964 3.6105 15.4607C3.74713 15.825 4.05682 16.0983 4.49403 16.244C8.68399 17.6377 13.2929 17.6377 17.4829 16.244C17.8746 16.1165 18.1751 15.825 18.3118 15.4425C18.4575 15.0599 18.412 14.6409 18.2025 14.2857L17.0457 12.3547C16.6631 11.7262 16.3716 10.6605 16.3716 9.92268V8.00987C16.3625 5.03136 13.9488 2.61759 10.9794 2.61759Z"
        fill="#33231F" />
    <path
        d="M10.9611 20.9714C9.9865 20.9714 9.0301 20.5707 8.33784 19.8784C7.64559 19.1862 7.24481 18.2297 7.24481 17.2551H8.6111C8.6111 17.8745 8.86614 18.4757 9.30335 18.9129C9.74057 19.3501 10.3417 19.6051 10.9611 19.6051C12.2545 19.6051 13.3111 18.5485 13.3111 17.2551H14.6774C14.6774 19.3046 13.0106 20.9714 10.9611 20.9714Z"
        fill="#33231F" />
</svg>
