<svg width="25" height="25" viewBox="0 0 25 25" fill="none" xmlns="http://www.w3.org/2000/svg">
<path d="M12.5 23.7099C8.5 23.7099 5.25 20.8399 5.25 17.3099V13.6099C5.25 13.1999 5.59 12.8599 6 12.8599C6.41 12.8599 6.75 13.1999 6.75 13.6099C6.75 16.2299 9.22 18.2099 12.5 18.2099C15.78 18.2099 18.25 16.2299 18.25 13.6099C18.25 13.1999 18.59 12.8599 19 12.8599C19.41 12.8599 19.75 13.1999 19.75 13.6099V17.3099C19.75 20.8399 16.5 23.7099 12.5 23.7099ZM6.75 17.4199C6.82 20.0699 9.37 22.2099 12.5 22.2099C15.63 22.2099 18.18 20.0699 18.25 17.4199C16.95 18.8299 14.89 19.7099 12.5 19.7099C10.11 19.7099 8.06 18.8299 6.75 17.4199Z" fill="#292D32"/>
<path d="M12.5 14.71C9.74 14.71 7.25999 13.47 6.04999 11.47C5.52999 10.62 5.25 9.62996 5.25 8.60996C5.25 6.88996 6.02 5.26996 7.41 4.04996C8.77 2.85996 10.58 2.20996 12.5 2.20996C14.42 2.20996 16.22 2.85996 17.59 4.03996C18.98 5.26996 19.75 6.88996 19.75 8.60996C19.75 9.62996 19.47 10.61 18.95 11.47C17.74 13.47 15.26 14.71 12.5 14.71ZM12.5 3.70996C10.94 3.70996 9.48001 4.22996 8.39001 5.18996C7.33001 6.10996 6.75 7.32996 6.75 8.60996C6.75 9.35996 6.94999 10.06 7.32999 10.69C8.27999 12.25 10.26 13.21 12.5 13.21C14.74 13.21 16.72 12.24 17.67 10.69C18.06 10.06 18.25 9.35996 18.25 8.60996C18.25 7.32996 17.67 6.10996 16.6 5.16996C15.51 4.22996 14.06 3.70996 12.5 3.70996Z" fill="#292D32"/>
<path d="M12.5 19.71C8.37 19.71 5.25 17.09 5.25 13.61V8.60996C5.25 5.07996 8.5 2.20996 12.5 2.20996C14.42 2.20996 16.22 2.85996 17.59 4.03996C18.98 5.26996 19.75 6.88996 19.75 8.60996V13.61C19.75 17.09 16.63 19.71 12.5 19.71ZM12.5 3.70996C9.33 3.70996 6.75 5.90996 6.75 8.60996V13.61C6.75 16.23 9.22 18.21 12.5 18.21C15.78 18.21 18.25 16.23 18.25 13.61V8.60996C18.25 7.32996 17.67 6.10996 16.6 5.16996C15.51 4.22996 14.06 3.70996 12.5 3.70996Z" fill="#292D32"/>
</svg>
