<svg fill="none" height="21" viewBox="0 0 21 21" width="21" xmlns="http://www.w3.org/2000/svg">
    <path
        d="M1.20989 6.49211C1.56229 6.49211 1.84819 6.2062 1.84819 5.85381V1.38573H6.31627C6.66867 1.38573 6.95457 1.09982 6.95457 0.747429C6.95457 0.395035 6.66867 0.109131 6.31627 0.109131H1.20989C0.857498 0.109131 0.571594 0.395035 0.571594 0.747429V5.85381C0.571594 6.20621 0.857499 6.49211 1.20989 6.49211Z"
        fill="black" />
    <path
        d="M19.9333 0.109131H14.8269C14.4745 0.109131 14.1886 0.395035 14.1886 0.747429C14.1886 1.09982 14.4745 1.38573 14.8269 1.38573H19.295V5.85381C19.295 6.20621 19.5809 6.49211 19.9333 6.49211C20.2857 6.49211 20.5716 6.2062 20.5716 5.85381V0.747429C20.5716 0.395035 20.2857 0.109131 19.9333 0.109131Z"
        fill="black" />
    <path
        d="M6.31627 18.8325H1.84819V14.3644C1.84819 14.012 1.56229 13.7261 1.20989 13.7261C0.857499 13.7261 0.571594 14.012 0.571594 14.3644V19.4708C0.571594 19.8231 0.857499 20.1091 1.20989 20.1091H6.31627C6.66867 20.1091 6.95457 19.8231 6.95457 19.4708C6.95457 19.1184 6.66867 18.8325 6.31627 18.8325Z"
        fill="black" />
    <path
        d="M19.9333 13.7261C19.5809 13.7261 19.295 14.012 19.295 14.3644V18.8325H14.8269C14.4745 18.8325 14.1886 19.1184 14.1886 19.4708C14.1886 19.8231 14.4745 20.1091 14.8269 20.1091H19.9333C20.2857 20.1091 20.5716 19.8231 20.5716 19.4708V14.3644C20.5716 14.012 20.2857 13.7261 19.9333 13.7261Z"
        fill="black" />
    <path
        d="M8.86948 3.51343H4.61416C4.26176 3.51343 3.97586 3.79933 3.97586 4.15173V8.40704C3.97586 8.75944 4.26176 9.04534 4.61416 9.04534H8.86948C9.22187 9.04534 9.50778 8.75944 9.50778 8.40704V4.15173C9.50778 3.79933 9.22187 3.51343 8.86948 3.51343ZM8.23118 4.79002V7.76875H5.25246V4.79002H8.23118Z"
        fill="black" />
    <path
        d="M12.2737 9.04534H16.5291C16.8814 9.04534 17.1674 8.75944 17.1674 8.40704V4.15173C17.1674 3.79933 16.8814 3.51343 16.5291 3.51343H12.2737C11.9213 3.51343 11.6354 3.79933 11.6354 4.15173V8.40704C11.6354 8.75944 11.9213 9.04534 12.2737 9.04534ZM12.912 7.76875V4.79002H15.8908V7.76875H12.912Z"
        fill="black" />
    <path
        d="M8.86948 11.1731H4.61416C4.26176 11.1731 3.97586 11.459 3.97586 11.8114V16.0667C3.97586 16.4191 4.26176 16.705 4.61416 16.705H8.86948C9.22187 16.705 9.50778 16.4191 9.50778 16.0667V11.8114C9.50778 11.459 9.22187 11.1731 8.86948 11.1731ZM8.23118 12.4497V15.4284H5.25246V12.4497H8.23118Z"
        fill="black" />
    <path
        d="M15.8907 16.0667C15.8907 16.4191 16.1767 16.705 16.529 16.705C16.8814 16.705 17.1673 16.4191 17.1673 16.0667V11.8114C17.1673 11.459 16.8814 11.1731 16.529 11.1731C16.1767 11.1731 15.8907 11.459 15.8907 11.8114V13.3008H13.9759C13.6235 13.3008 13.3376 13.5867 13.3376 13.9391C13.3376 14.2914 13.6235 14.5774 13.9759 14.5774H15.8907V16.0667Z"
        fill="black" />
    <path
        d="M12.2737 12.4497C12.6263 12.4497 12.912 12.1639 12.912 11.8114C12.912 11.4589 12.6263 11.1731 12.2737 11.1731C11.9212 11.1731 11.6354 11.4589 11.6354 11.8114C11.6354 12.1639 11.9212 12.4497 12.2737 12.4497Z"
        fill="black" />
    <path
        d="M12.2737 16.7048C12.6263 16.7048 12.912 16.419 12.912 16.0665C12.912 15.714 12.6263 15.4282 12.2737 15.4282C11.9212 15.4282 11.6354 15.714 11.6354 16.0665C11.6354 16.419 11.9212 16.7048 12.2737 16.7048Z"
        fill="black" />
</svg>
