<svg fill="none" height="25" viewBox="0 0 24 25" width="24" xmlns="http://www.w3.org/2000/svg">
    <g clip-path="url(#clip0_102_680)">
        <path
            d="M0 0.959961V8.92871H7.96875V0.959961H0ZM6.09375 7.05371H1.875V2.83496H6.09375V7.05371Z"
            fill="black" />
        <path d="M4.92188 4.00684H3.04688V5.88184H4.92188V4.00684Z" fill="black" />
        <path
            d="M16.0312 0.959961V8.92871H24V0.959961H16.0312ZM22.125 7.05371H17.9062V2.83496H22.125V7.05371Z"
            fill="black" />
        <path d="M20.9531 4.00684H19.0781V5.88184H20.9531V4.00684Z" fill="black" />
        <path d="M0 16.9912V24.96H7.96875V16.9912H0ZM6.09375 23.085H1.875V18.8662H6.09375V23.085Z"
            fill="black" />
        <path d="M4.92188 20.0381H3.04688V21.9131H4.92188V20.0381Z" fill="black" />
        <path d="M3.75 10.1943H1.875V12.0693H3.75V10.1943Z" fill="black" />
        <path d="M5.625 13.9443V12.0693H3.75V13.9443H5.57812V15.8193H7.45312V13.9443H5.625Z"
            fill="black" />
        <path d="M15 4.56934H13.125V6.44434H15V4.56934Z" fill="black" />
        <path d="M11.25 2.83496H9.375V6.44434H11.25V2.83496Z" fill="black" />
        <path d="M13.125 0.959961H11.25V2.83496H13.125V0.959961Z" fill="black" />
        <path d="M11.25 6.44434V8.31934H9.375V10.1943H13.125V6.44434H11.25Z" fill="black" />
        <path
            d="M13.125 17.6006V15.7725H11.25V12.0693H9.375V15.8193H11.25V17.6475H13.125V19.4756H16.875V17.6006H13.125Z"
            fill="black" />
        <path d="M15 10.1943H13.125V13.9443H15V10.1943Z" fill="black" />
        <path
            d="M22.125 12.0225V10.1943H18.7031V12.0693H16.875V13.9443H18.75V15.7725H24V12.0225H22.125ZM22.125 13.8975H18.75V12.0693H22.125V13.8975Z"
            fill="black" />
        <path d="M24 17.6006H22.125V21.3506H24V17.6006Z" fill="black" />
        <path d="M16.875 13.9443H15V15.8193H16.875V13.9443Z" fill="black" />
        <path d="M18.75 19.4756H16.875V21.3506H18.75V19.4756Z" fill="black" />
        <path d="M20.625 17.6006H18.75V19.4756H20.625V17.6006Z" fill="black" />
        <path d="M18.75 21.3506V24.96H20.625V23.2256H22.125V21.3506H18.75Z" fill="black" />
        <path d="M11.25 17.6475H9.375V21.21H11.25V17.6475Z" fill="black" />
        <path d="M15 23.085V21.21H11.25V24.96H13.125V23.085H14.9531V24.96H16.8281V23.085H15Z"
            fill="black" />
        <path d="M9.375 10.1943H5.625V12.0693H9.375V10.1943Z" fill="black" />
        <path d="M1.875 12.0693H0V15.8193H1.875V12.0693Z" fill="black" />
    </g>
    <defs>
        <clipPath id="clip0_102_680">
            <rect fill="white" height="24" transform="translate(0 0.959961)" width="24" />
        </clipPath>
    </defs>
</svg>
