<svg fill="none" height="25" viewBox="0 0 24 25" width="24" xmlns="http://www.w3.org/2000/svg">
    <path
        d="M12 16.71C9.93 16.71 8.25 15.03 8.25 12.96C8.25 10.89 9.93 9.20996 12 9.20996C14.07 9.20996 15.75 10.89 15.75 12.96C15.75 15.03 14.07 16.71 12 16.71ZM12 10.71C10.76 10.71 9.75 11.72 9.75 12.96C9.75 14.2 10.76 15.21 12 15.21C13.24 15.21 14.25 14.2 14.25 12.96C14.25 11.72 13.24 10.71 12 10.71Z"
        fill="#090909" />
    <path
        d="M15.21 23.15C15 23.15 14.79 23.12 14.58 23.07C13.96 22.9 13.44 22.51 13.11 21.96L12.99 21.76C12.4 20.74 11.59 20.74 11 21.76L10.89 21.95C10.56 22.51 10.04 22.91 9.42 23.07C8.79 23.24 8.14 23.15 7.59 22.82L5.87 21.83C5.26 21.48 4.82 20.91 4.63 20.22C4.45 19.53 4.54 18.82 4.89 18.21C5.18 17.7 5.26 17.24 5.09 16.95C4.92 16.66 4.49 16.49 3.9 16.49C2.44 16.49 1.25 15.3 1.25 13.84V12.08C1.25 10.62 2.44 9.43 3.9 9.43C4.49 9.43 4.92 9.26 5.09 8.97C5.26 8.68 5.19 8.22 4.89 7.71C4.54 7.1 4.45 6.38 4.63 5.7C4.81 5.01 5.25 4.44 5.87 4.09L7.6 3.1C8.73 2.43 10.22 2.82 10.9 3.97L11.02 4.17C11.61 5.19 12.42 5.19 13.01 4.17L13.12 3.98C13.8 2.82 15.29 2.43 16.43 3.11L18.15 4.1C18.76 4.45 19.2 5.02 19.39 5.71C19.57 6.4 19.48 7.11 19.13 7.72C18.84 8.23 18.76 8.69 18.93 8.98C19.1 9.27 19.53 9.44 20.12 9.44C21.58 9.44 22.77 10.63 22.77 12.09V13.85C22.77 15.31 21.58 16.5 20.12 16.5C19.53 16.5 19.1 16.67 18.93 16.96C18.76 17.25 18.83 17.71 19.13 18.22C19.48 18.83 19.58 19.55 19.39 20.23C19.21 20.92 18.77 21.49 18.15 21.84L16.42 22.83C16.04 23.04 15.63 23.15 15.21 23.15ZM12 19.45C12.89 19.45 13.72 20.01 14.29 21L14.4 21.19C14.52 21.4 14.72 21.55 14.96 21.61C15.2 21.67 15.44 21.64 15.64 21.52L17.37 20.52C17.63 20.37 17.83 20.12 17.91 19.82C17.99 19.52 17.95 19.21 17.8 18.95C17.23 17.97 17.16 16.96 17.6 16.19C18.04 15.42 18.95 14.98 20.09 14.98C20.73 14.98 21.24 14.47 21.24 13.83V12.07C21.24 11.44 20.73 10.92 20.09 10.92C18.95 10.92 18.04 10.48 17.6 9.71C17.16 8.94 17.23 7.93 17.8 6.95C17.95 6.69 17.99 6.38 17.91 6.08C17.83 5.78 17.64 5.54 17.38 5.38L15.65 4.39C15.22 4.13 14.65 4.28 14.39 4.72L14.28 4.91C13.71 5.9 12.88 6.46 11.99 6.46C11.1 6.46 10.27 5.9 9.7 4.91L9.59 4.71C9.34 4.29 8.78 4.14 8.35 4.39L6.62 5.39C6.36 5.54 6.16 5.79 6.08 6.09C6 6.39 6.04 6.7 6.19 6.96C6.76 7.94 6.83 8.95 6.39 9.72C5.95 10.49 5.04 10.93 3.9 10.93C3.26 10.93 2.75 11.44 2.75 12.08V13.84C2.75 14.47 3.26 14.99 3.9 14.99C5.04 14.99 5.95 15.43 6.39 16.2C6.83 16.97 6.76 17.98 6.19 18.96C6.04 19.22 6 19.53 6.08 19.83C6.16 20.13 6.35 20.37 6.61 20.53L8.34 21.52C8.55 21.65 8.8 21.68 9.03 21.62C9.27 21.56 9.47 21.4 9.6 21.19L9.71 21C10.28 20.02 11.11 19.45 12 19.45Z"
        fill="#090909" />
</svg>
