<svg fill="none" height="22" viewBox="0 0 23 22" width="23" xmlns="http://www.w3.org/2000/svg">
    <path
        d="M17.2346 16.2806H7.53393C6.63218 16.2806 5.76686 15.8981 5.15658 15.2332C4.54631 14.5682 4.23662 13.6756 4.30949 12.7738L5.06551 3.70168C5.09283 3.41931 4.99263 3.14606 4.80135 2.93656C4.61007 2.72706 4.34592 2.61775 4.06355 2.61775H2.48777C2.11432 2.61775 1.80463 2.30806 1.80463 1.93461C1.80463 1.56116 2.11432 1.25146 2.48777 1.25146H4.07267C4.7376 1.25146 5.36608 1.53383 5.8124 2.01658C6.05833 2.28984 6.24051 2.60865 6.3407 2.96389H17.7173C18.6373 2.96389 19.4844 3.32822 20.1038 3.98404C20.7141 4.64897 21.0238 5.51429 20.9509 6.43426L20.459 13.2657C20.3588 14.9326 18.9015 16.2806 17.2346 16.2806ZM6.38625 4.32106L5.67578 12.8831C5.63024 13.4114 5.8033 13.9124 6.15853 14.3041C6.51377 14.6957 7.00563 14.9052 7.53393 14.9052H17.2346C18.1819 14.9052 19.0381 14.1037 19.111 13.1564L19.6028 6.32496C19.6392 5.78755 19.4662 5.27747 19.111 4.90402C18.7557 4.52146 18.2639 4.31194 17.7264 4.31194H6.38625V4.32106Z"
        fill="#33231F" />
    <path
        d="M15.4675 20.8348C14.4656 20.8348 13.6458 20.0151 13.6458 19.0131C13.6458 18.0112 14.4656 17.1914 15.4675 17.1914C16.4695 17.1914 17.2893 18.0112 17.2893 19.0131C17.2893 20.0151 16.4695 20.8348 15.4675 20.8348ZM15.4675 18.5577C15.2125 18.5577 15.0121 18.7581 15.0121 19.0131C15.0121 19.2682 15.2125 19.4686 15.4675 19.4686C15.7226 19.4686 15.923 19.2682 15.923 19.0131C15.923 18.7581 15.7226 18.5577 15.4675 18.5577Z"
        fill="#33231F" />
    <path
        d="M8.18067 20.8348C7.17872 20.8348 6.35895 20.0151 6.35895 19.0131C6.35895 18.0112 7.17872 17.1914 8.18067 17.1914C9.18261 17.1914 10.0024 18.0112 10.0024 19.0131C10.0024 20.0151 9.18261 20.8348 8.18067 20.8348ZM8.18067 18.5577C7.92563 18.5577 7.72524 18.7581 7.72524 19.0131C7.72524 19.2682 7.92563 19.4686 8.18067 19.4686C8.43571 19.4686 8.6361 19.2682 8.6361 19.0131C8.6361 18.7581 8.43571 18.5577 8.18067 18.5577Z"
        fill="#33231F" />
    <path
        d="M19.7941 8.08284H8.86381C8.49036 8.08284 8.18066 7.77315 8.18066 7.3997C8.18066 7.02624 8.49036 6.71655 8.86381 6.71655H19.7941C20.1676 6.71655 20.4773 7.02624 20.4773 7.3997C20.4773 7.77315 20.1676 8.08284 19.7941 8.08284Z"
        fill="#33231F" />
</svg>
