<svg width="22" height="25" viewBox="0 0 22 25" fill="none" xmlns="http://www.w3.org/2000/svg">
<path d="M12.7539 3.3958L13.3865 1.87728C13.4285 1.77662 13.4451 1.66713 13.4346 1.55854C13.4241 1.44996 13.387 1.34564 13.3265 1.25487C13.266 1.1641 13.184 1.08968 13.0878 1.03823C12.9916 0.986779 12.8842 0.959893 12.7751 0.959961H8.9892C8.88011 0.959893 8.7727 0.986779 8.6765 1.03823C8.58031 1.08968 8.49831 1.1641 8.43781 1.25487C8.37731 1.34564 8.34017 1.44996 8.3297 1.55854C8.31922 1.66713 8.33574 1.77662 8.37778 1.87728L9.0104 3.3958C6.96886 3.75244 5.0716 4.68458 3.5417 6.0826C2.0118 7.48063 0.912873 9.28641 0.374141 11.2876C-0.164591 13.2888 -0.12073 15.4023 0.500567 17.3794C1.12186 19.3565 2.29476 21.1152 3.88135 22.4485C5.46794 23.7819 7.40224 24.6345 9.45682 24.9061C11.5114 25.1777 13.6008 24.8571 15.4794 23.9819C17.358 23.1067 18.9476 21.7133 20.0614 19.9655C21.1751 18.2178 21.7667 16.1884 21.7666 14.1159C21.7796 11.5505 20.8804 9.06395 19.2294 7.10027C17.5785 5.13659 15.2834 3.82362 12.7539 3.3958ZM20.4415 14.1159C20.4416 15.1484 20.2736 16.1741 19.944 17.1526L14.1331 14.7455C14.2154 14.3298 14.2154 13.902 14.1331 13.4863L19.9539 11.0755C20.2779 12.0564 20.4426 13.0829 20.4415 14.1159ZM19.4511 9.84921L13.6262 12.2608C13.3889 11.9109 13.0872 11.6092 12.7372 11.3719L15.1492 5.54883C17.0168 6.47063 18.5287 7.98198 19.4511 9.84921ZM10.8821 16.1035C10.489 16.1035 10.1048 15.9869 9.7779 15.7685C9.45104 15.5501 9.19629 15.2397 9.04585 14.8765C8.89541 14.5133 8.85605 14.1137 8.93274 13.7281C9.00944 13.3426 9.19874 12.9884 9.4767 12.7105C9.75467 12.4325 10.1088 12.2432 10.4944 12.1665C10.8799 12.0898 11.2796 12.1292 11.6428 12.2796C12.0059 12.43 12.3164 12.6848 12.5348 13.0117C12.7532 13.3385 12.8697 13.7228 12.8697 14.1159C12.8691 14.6429 12.6595 15.1481 12.2869 15.5207C11.9143 15.8933 11.4091 16.1029 10.8821 16.1035ZM11.7813 2.28502L10.8821 4.44297L9.98299 2.28502H11.7813ZM10.2707 6.42034C10.3209 6.54113 10.4058 6.64434 10.5146 6.71695C10.6234 6.78956 10.7513 6.82831 10.8821 6.82831C11.013 6.82831 11.1408 6.78956 11.2497 6.71695C11.3585 6.64434 11.4433 6.54113 11.4936 6.42034L12.2299 4.65309C12.8044 4.7335 13.3705 4.86527 13.9214 5.04682L11.5114 10.865C11.0959 10.7827 10.6684 10.7827 10.2529 10.865L7.84283 5.04682C8.39377 4.86527 8.95989 4.7335 9.53437 4.65309L10.2707 6.42034ZM6.61621 5.54959L9.02706 11.3719C8.6771 11.6092 8.37543 11.9109 8.13813 12.2608L2.31317 9.84921C3.23592 7.9818 4.74822 6.47042 6.61621 5.54883V5.54959ZM1.32279 14.1159C1.32172 13.0829 1.48635 12.0564 1.81041 11.0755L7.6312 13.4863C7.54893 13.902 7.54893 14.3298 7.6312 14.7455L1.82025 17.1526C1.49066 16.1741 1.32264 15.1484 1.32279 14.1159ZM2.32832 18.3762L8.13813 15.971C8.37543 16.321 8.6771 16.6226 9.02706 16.8599L6.62151 22.6697C4.76455 21.7394 3.25847 20.2332 2.32832 18.3762ZM7.84586 23.1782L10.2529 17.3668C10.6684 17.4491 11.0959 17.4491 11.5114 17.3668L13.9184 23.1782C11.9485 23.841 9.81579 23.841 7.84586 23.1782ZM15.1428 22.6697L12.7372 16.8599C13.0872 16.6226 13.3889 16.321 13.6262 15.971L19.436 18.3777C18.5056 20.2342 16.9995 21.7398 15.1428 22.6697Z" fill="black"/>
</svg>
