<svg fill="none" height="21" viewBox="0 0 21 21" width="21" xmlns="http://www.w3.org/2000/svg">
    <path
        d="M14.7884 17.4205H6.4325C2.74753 17.4205 1.62784 16.3008 1.62784 12.6158V12.198C1.62784 11.8554 1.91194 11.5713 2.25453 11.5713C3.0567 11.5713 3.71682 10.9112 3.71682 10.1091C3.71682 9.30688 3.0567 8.64676 2.25453 8.64676C1.91194 8.64676 1.62784 8.36266 1.62784 8.02007V7.60227C1.62784 3.9173 2.74753 2.79761 6.4325 2.79761H14.7884C18.4734 2.79761 19.5931 3.9173 19.5931 7.60227V8.43786C19.5931 8.78046 19.309 9.06456 18.9664 9.06456C18.1642 9.06456 17.5041 9.72468 17.5041 10.5268C17.5041 11.329 18.1642 11.9891 18.9664 11.9891C19.309 11.9891 19.5931 12.2732 19.5931 12.6158C19.5931 16.3008 18.4734 17.4205 14.7884 17.4205ZM2.88123 12.7495C2.89794 15.624 3.49121 16.1671 6.4325 16.1671H14.7884C17.5793 16.1671 18.2561 15.6741 18.3314 13.1673C17.1365 12.8832 16.2507 11.8053 16.2507 10.5268C16.2507 9.24839 17.1448 8.17047 18.3397 7.88637V7.60227C18.3397 4.6192 17.7799 4.051 14.7884 4.051H6.4325C3.49121 4.051 2.89794 4.59413 2.88123 7.46858C4.07613 7.75268 4.97021 8.83059 4.97021 10.1091C4.97021 11.3875 4.07613 12.4654 2.88123 12.7495Z"
        fill="#33231F" />
    <path
        d="M8.93929 6.13998C8.59669 6.13998 8.31259 5.85588 8.31259 5.51329V3.4243C8.31259 3.08171 8.59669 2.79761 8.93929 2.79761C9.28188 2.79761 9.56598 3.08171 9.56598 3.4243V5.51329C9.56598 5.85588 9.28188 6.13998 8.93929 6.13998Z"
        fill="#33231F" />
    <path
        d="M8.93929 12.2648C8.59669 12.2648 8.31259 11.9807 8.31259 11.6381V8.57152C8.31259 8.22893 8.59669 7.94482 8.93929 7.94482C9.28188 7.94482 9.56598 8.22893 9.56598 8.57152V11.6381C9.56598 11.9891 9.28188 12.2648 8.93929 12.2648Z"
        fill="#33231F" />
    <path
        d="M8.93929 17.4205C8.59669 17.4205 8.31259 17.1364 8.31259 16.7938V14.7048C8.31259 14.3622 8.59669 14.0781 8.93929 14.0781C9.28188 14.0781 9.56598 14.3622 9.56598 14.7048V16.7938C9.56598 17.1364 9.28188 17.4205 8.93929 17.4205Z"
        fill="#33231F" />
</svg>
