<svg fill="none" height="25" viewBox="0 0 24 25" width="24" xmlns="http://www.w3.org/2000/svg">
    <path
        d="M21 7.68994C20.98 7.68994 20.95 7.68994 20.92 7.68994C15.63 7.15994 10.35 6.95994 5.12004 7.48994L3.08004 7.68994C2.66004 7.72994 2.29004 7.42994 2.25004 7.00994C2.21004 6.58994 2.51004 6.22994 2.92004 6.18994L4.96004 5.98994C10.28 5.44994 15.67 5.65994 21.07 6.18994C21.48 6.22994 21.78 6.59994 21.74 7.00994C21.71 7.39994 21.38 7.68994 21 7.68994Z"
        fill="#D15252" />
    <path
        d="M8.50001 6.67996C8.46001 6.67996 8.42001 6.67996 8.37001 6.66996C7.97001 6.59996 7.69001 6.20996 7.76001 5.80996L7.98001 4.49996C8.14001 3.53996 8.36001 2.20996 10.69 2.20996H13.31C15.65 2.20996 15.87 3.58996 16.02 4.50996L16.24 5.80996C16.31 6.21996 16.03 6.60996 15.63 6.66996C15.22 6.73996 14.83 6.45996 14.77 6.05996L14.55 4.75996C14.41 3.88996 14.38 3.71996 13.32 3.71996H10.7C9.64001 3.71996 9.62001 3.85996 9.47001 4.74996L9.24001 6.04996C9.18001 6.41996 8.86001 6.67996 8.50001 6.67996Z"
        fill="#D15252" />
    <path
        d="M15.21 23.71H8.79002C5.30002 23.71 5.16002 21.78 5.05002 20.22L4.40002 10.15C4.37002 9.74004 4.69002 9.38004 5.10002 9.35004C5.52002 9.33004 5.87002 9.64004 5.90002 10.05L6.55002 20.12C6.66002 21.64 6.70002 22.21 8.79002 22.21H15.21C17.31 22.21 17.35 21.64 17.45 20.12L18.1 10.05C18.13 9.64004 18.49 9.33004 18.9 9.35004C19.31 9.38004 19.63 9.73004 19.6 10.15L18.95 20.22C18.84 21.78 18.7 23.71 15.21 23.71Z"
        fill="#D15252" />
    <path
        d="M13.66 18.21H10.33C9.91996 18.21 9.57996 17.87 9.57996 17.46C9.57996 17.05 9.91996 16.71 10.33 16.71H13.66C14.07 16.71 14.41 17.05 14.41 17.46C14.41 17.87 14.07 18.21 13.66 18.21Z"
        fill="#D15252" />
    <path
        d="M14.5 14.21H9.5C9.09 14.21 8.75 13.87 8.75 13.46C8.75 13.05 9.09 12.71 9.5 12.71H14.5C14.91 12.71 15.25 13.05 15.25 13.46C15.25 13.87 14.91 14.21 14.5 14.21Z"
        fill="#D15252" />
</svg>
